<svg width="41" height="41" viewBox="0 0 41 41" fill="none" xmlns="http://www.w3.org/2000/svg">
<path d="M20.4986 34.4405C12.7906 34.4405 6.55859 28.2085 6.55859 20.5005C6.55859 12.7925 12.7906 6.56055 20.4986 6.56055C28.2066 6.56055 34.4386 12.7925 34.4386 20.5005C34.4386 28.2085 28.2066 34.4405 20.4986 34.4405ZM20.4986 8.20055C13.6926 8.20055 8.19859 13.6945 8.19859 20.5005C8.19859 27.3065 13.6926 32.8005 20.4986 32.8005C27.3046 32.8005 32.7986 27.3065 32.7986 20.5005C32.7986 13.6945 27.3046 8.20055 20.4986 8.20055Z" fill="#002068"/>
<path d="M18.8567 26.5679L11.7227 19.4339L12.8707 18.2859L18.8567 24.2719L28.1227 15.0059L29.2707 16.1539L18.8567 26.5679Z" fill="#002068"/>
</svg>
