<svg width="430" height="91" viewBox="0 0 430 91" fill="none" xmlns="http://www.w3.org/2000/svg">
<mask id="mask0_433_3951" style="mask-type:alpha" maskUnits="userSpaceOnUse" x="0" y="0" width="430" height="68">
<rect width="430" height="68" fill="#D9D9D9"/>
</mask>
<g mask="url(#mask0_433_3951)">
<path d="M412 17L412 55L17 55L17 17" stroke="#9E9E9E" stroke-width="2" stroke-linecap="round"/>
</g>
<mask id="mask1_433_3951" style="mask-type:alpha" maskUnits="userSpaceOnUse" x="0" y="0" width="430" height="68">
<rect width="430" height="68" fill="#D9D9D9"/>
</mask>
<g mask="url(#mask1_433_3951)">
<path d="M412 17L412 55L17 55L17 17" stroke="#9E9E9E" stroke-width="2" stroke-linecap="round"/>
</g>
<mask id="mask2_433_3951" style="mask-type:alpha" maskUnits="userSpaceOnUse" x="143" y="35" width="149" height="56">
<rect x="143" y="35" width="149" height="56" fill="#D9D9D9"/>
</mask>
<g mask="url(#mask2_433_3951)">
<line x1="216" y1="56" x2="216" y2="88" stroke="#9E9E9E" stroke-width="2" stroke-linecap="round"/>
<rect x="147" y="42" width="136" height="26" rx="13" fill="#F2F2F4"/>
<path d="M160.211 49.2379V60H157.935V49.2379H160.211ZM162.041 60V51.9284H164.174V53.3525H164.269C164.437 52.8795 164.717 52.5064 165.11 52.2332C165.502 51.9599 165.972 51.8233 166.518 51.8233C167.072 51.8233 167.543 51.9617 167.932 52.2384C168.32 52.5117 168.58 52.8831 168.709 53.3525H168.793C168.958 52.8901 169.256 52.5205 169.687 52.2437C170.121 51.9634 170.634 51.8233 171.226 51.8233C171.98 51.8233 172.591 52.0633 173.06 52.5432C173.533 53.0197 173.77 53.6958 173.77 54.5716V60H171.536V55.0131C171.536 54.5646 171.417 54.2283 171.179 54.0041C170.941 53.7799 170.643 53.6678 170.286 53.6678C169.879 53.6678 169.562 53.7974 169.335 54.0567C169.107 54.3124 168.993 54.6505 168.993 55.0709V60H166.823V54.9658C166.823 54.5699 166.709 54.2546 166.481 54.0199C166.257 53.7852 165.961 53.6678 165.593 53.6678C165.344 53.6678 165.12 53.7308 164.921 53.857C164.724 53.9796 164.568 54.153 164.453 54.3772C164.337 54.5979 164.279 54.8572 164.279 55.1549V60H162.041ZM175.538 63.0268V51.9284H177.745V53.2842H177.845C177.943 53.067 178.085 52.8463 178.271 52.6221C178.46 52.3943 178.705 52.2052 179.006 52.0545C179.311 51.9004 179.69 51.8233 180.141 51.8233C180.73 51.8233 181.273 51.9774 181.771 52.2857C182.268 52.5905 182.666 53.0512 182.963 53.6678C183.261 54.2809 183.41 55.0498 183.41 55.9747C183.41 56.8751 183.265 57.6353 182.974 58.2554C182.687 58.8719 182.294 59.3396 181.797 59.6584C181.303 59.9737 180.749 60.1314 180.136 60.1314C179.702 60.1314 179.332 60.0596 179.027 59.9159C178.726 59.7723 178.479 59.5919 178.286 59.3747C178.094 59.154 177.947 58.9315 177.845 58.7073H177.777V63.0268H175.538ZM177.729 55.9642C177.729 56.4442 177.796 56.8628 177.929 57.2201C178.062 57.5775 178.255 57.856 178.507 58.0557C178.759 58.2519 179.066 58.3499 179.427 58.3499C179.791 58.3499 180.099 58.2501 180.352 58.0504C180.604 57.8472 180.795 57.567 180.924 57.2096C181.058 56.8488 181.124 56.4336 181.124 55.9642C181.124 55.4983 181.059 55.0884 180.93 54.7345C180.8 54.3807 180.609 54.104 180.357 53.9043C180.105 53.7046 179.795 53.6047 179.427 53.6047C179.062 53.6047 178.754 53.7011 178.502 53.8938C178.253 54.0864 178.062 54.3597 177.929 54.7135C177.796 55.0674 177.729 55.4842 177.729 55.9642ZM187.141 49.2379V60H184.902V49.2379H187.141ZM192.613 60.1576C191.782 60.1576 191.068 59.9895 190.469 59.6532C189.873 59.3134 189.414 58.8334 189.092 58.2133C188.77 57.5897 188.609 56.8523 188.609 56.001C188.609 55.1707 188.77 54.442 189.092 53.8149C189.414 53.1878 189.868 52.6991 190.453 52.3488C191.042 51.9985 191.732 51.8233 192.523 51.8233C193.056 51.8233 193.552 51.9091 194.011 52.0808C194.473 52.249 194.876 52.5029 195.219 52.8428C195.566 53.1826 195.836 53.61 196.028 54.125C196.221 54.6365 196.318 55.2355 196.318 55.9222V56.537H189.502V55.1497H194.21C194.21 54.8274 194.14 54.5419 194 54.2931C193.86 54.0444 193.666 53.85 193.417 53.7098C193.172 53.5662 192.886 53.4944 192.56 53.4944C192.22 53.4944 191.919 53.5732 191.656 53.7308C191.397 53.885 191.194 54.0934 191.047 54.3562C190.9 54.6154 190.824 54.9045 190.821 55.2233V56.5422C190.821 56.9416 190.894 57.2867 191.042 57.5775C191.192 57.8682 191.404 58.0925 191.677 58.2501C191.951 58.4078 192.275 58.4866 192.65 58.4866C192.898 58.4866 193.126 58.4515 193.333 58.3815C193.539 58.3114 193.716 58.2063 193.863 58.0662C194.011 57.926 194.123 57.7544 194.2 57.5512L196.27 57.6878C196.165 58.1853 195.95 58.6197 195.624 58.9911C195.302 59.3589 194.885 59.6462 194.373 59.8529C193.865 60.0561 193.278 60.1576 192.613 60.1576ZM197.778 60V51.9284H199.912V53.3525H200.006C200.175 52.8795 200.455 52.5064 200.847 52.2332C201.24 51.9599 201.709 51.8233 202.256 51.8233C202.809 51.8233 203.28 51.9617 203.669 52.2384C204.058 52.5117 204.317 52.8831 204.447 53.3525H204.531C204.696 52.8901 204.993 52.5205 205.424 52.2437C205.859 51.9634 206.372 51.8233 206.964 51.8233C207.717 51.8233 208.329 52.0633 208.798 52.5432C209.271 53.0197 209.507 53.6958 209.507 54.5716V60H207.274V55.0131C207.274 54.5646 207.155 54.2283 206.917 54.0041C206.679 53.7799 206.381 53.6678 206.023 53.6678C205.617 53.6678 205.3 53.7974 205.072 54.0567C204.845 54.3124 204.731 54.6505 204.731 55.0709V60H202.56V54.9658C202.56 54.5699 202.447 54.2546 202.219 54.0199C201.995 53.7852 201.699 53.6678 201.331 53.6678C201.082 53.6678 200.858 53.7308 200.658 53.857C200.462 53.9796 200.306 54.153 200.19 54.3772C200.075 54.5979 200.017 54.8572 200.017 55.1549V60H197.778ZM214.954 60.1576C214.124 60.1576 213.409 59.9895 212.81 59.6532C212.215 59.3134 211.756 58.8334 211.433 58.2133C211.111 57.5897 210.95 56.8523 210.95 56.001C210.95 55.1707 211.111 54.442 211.433 53.8149C211.756 53.1878 212.209 52.6991 212.794 52.3488C213.383 51.9985 214.073 51.8233 214.865 51.8233C215.397 51.8233 215.893 51.9091 216.352 52.0808C216.814 52.249 217.217 52.5029 217.561 52.8428C217.907 53.1826 218.177 53.61 218.37 54.125C218.563 54.6365 218.659 55.2355 218.659 55.9222V56.537H211.843V55.1497H216.552C216.552 54.8274 216.482 54.5419 216.341 54.2931C216.201 54.0444 216.007 53.85 215.758 53.7098C215.513 53.5662 215.227 53.4944 214.902 53.4944C214.562 53.4944 214.261 53.5732 213.998 53.7308C213.739 53.885 213.535 54.0934 213.388 54.3562C213.241 54.6154 213.166 54.9045 213.162 55.2233V56.5422C213.162 56.9416 213.236 57.2867 213.383 57.5775C213.534 57.8682 213.746 58.0925 214.019 58.2501C214.292 58.4078 214.616 58.4866 214.991 58.4866C215.24 58.4866 215.467 58.4515 215.674 58.3815C215.881 58.3114 216.058 58.2063 216.205 58.0662C216.352 57.926 216.464 57.7544 216.541 57.5512L218.612 57.6878C218.507 58.1853 218.291 58.6197 217.965 58.9911C217.643 59.3589 217.226 59.6462 216.715 59.8529C216.207 60.0561 215.62 60.1576 214.954 60.1576ZM222.358 55.3336V60H220.12V51.9284H222.253V53.3525H222.348C222.527 52.8831 222.826 52.5117 223.246 52.2384C223.667 51.9617 224.177 51.8233 224.776 51.8233C225.336 51.8233 225.825 51.9459 226.242 52.1912C226.659 52.4364 226.983 52.7867 227.214 53.2421C227.445 53.6941 227.561 54.2336 227.561 54.8607V60H225.322V55.26C225.326 54.7661 225.2 54.3807 224.944 54.104C224.688 53.8237 224.336 53.6836 223.888 53.6836C223.586 53.6836 223.32 53.7484 223.089 53.878C222.861 54.0076 222.682 54.1968 222.553 54.4455C222.427 54.6908 222.362 54.9868 222.358 55.3336ZM233.618 51.9284V53.61H228.758V51.9284H233.618ZM229.861 49.9946H232.1V57.5197C232.1 57.7264 232.131 57.8875 232.194 58.0031C232.257 58.1152 232.345 58.1941 232.457 58.2396C232.573 58.2851 232.706 58.3079 232.856 58.3079C232.962 58.3079 233.067 58.2991 233.172 58.2816C233.277 58.2606 233.357 58.2448 233.413 58.2343L233.766 59.9002C233.653 59.9352 233.496 59.9755 233.293 60.021C233.089 60.0701 232.842 60.0998 232.552 60.1104C232.012 60.1314 231.539 60.0596 231.133 59.8949C230.73 59.7302 230.416 59.4745 230.192 59.1277C229.968 58.7809 229.858 58.3429 229.861 57.8139V49.9946ZM238.668 60.1576C237.838 60.1576 237.123 59.9895 236.524 59.6532C235.929 59.3134 235.47 58.8334 235.148 58.2133C234.825 57.5897 234.664 56.8523 234.664 56.001C234.664 55.1707 234.825 54.442 235.148 53.8149C235.47 53.1878 235.924 52.6991 236.509 52.3488C237.097 51.9985 237.787 51.8233 238.579 51.8233C239.112 51.8233 239.607 51.9091 240.066 52.0808C240.529 52.249 240.932 52.5029 241.275 52.8428C241.622 53.1826 241.891 53.61 242.084 54.125C242.277 54.6365 242.373 55.2355 242.373 55.9222V56.537H235.558V55.1497H240.266C240.266 54.8274 240.196 54.5419 240.056 54.2931C239.916 54.0444 239.721 53.85 239.472 53.7098C239.227 53.5662 238.942 53.4944 238.616 53.4944C238.276 53.4944 237.975 53.5732 237.712 53.7308C237.453 53.885 237.25 54.0934 237.102 54.3562C236.955 54.6154 236.88 54.9045 236.876 55.2233V56.5422C236.876 56.9416 236.95 57.2867 237.097 57.5775C237.248 57.8682 237.46 58.0925 237.733 58.2501C238.006 58.4078 238.33 58.4866 238.705 58.4866C238.954 58.4866 239.182 58.4515 239.388 58.3815C239.595 58.3114 239.772 58.2063 239.919 58.0662C240.066 57.926 240.178 57.7544 240.255 57.5512L242.326 57.6878C242.221 58.1853 242.005 58.6197 241.68 58.9911C241.357 59.3589 240.94 59.6462 240.429 59.8529C239.921 60.0561 239.334 60.1576 238.668 60.1576ZM246.808 60.1314C246.195 60.1314 245.64 59.9737 245.143 59.6584C244.649 59.3396 244.256 58.8719 243.965 58.2554C243.678 57.6353 243.535 56.8751 243.535 55.9747C243.535 55.0498 243.683 54.2809 243.981 53.6678C244.279 53.0512 244.675 52.5905 245.169 52.2857C245.666 51.9774 246.211 51.8233 246.803 51.8233C247.255 51.8233 247.632 51.9004 247.933 52.0545C248.238 52.2052 248.483 52.3943 248.669 52.6221C248.858 52.8463 249.001 53.067 249.1 53.2842H249.168V49.2379H251.401V60H249.194V58.7073H249.1C248.994 58.9315 248.846 59.154 248.653 59.3747C248.464 59.5919 248.217 59.7723 247.912 59.9159C247.611 60.0596 247.243 60.1314 246.808 60.1314ZM247.518 58.3499C247.879 58.3499 248.183 58.2519 248.432 58.0557C248.684 57.856 248.877 57.5775 249.01 57.2201C249.147 56.8628 249.215 56.4442 249.215 55.9642C249.215 55.4842 249.149 55.0674 249.015 54.7135C248.882 54.3597 248.69 54.0864 248.437 53.8938C248.185 53.7011 247.879 53.6047 247.518 53.6047C247.15 53.6047 246.84 53.7046 246.588 53.9043C246.335 54.104 246.144 54.3807 246.015 54.7345C245.885 55.0884 245.82 55.4983 245.82 55.9642C245.82 56.4336 245.885 56.8488 246.015 57.2096C246.148 57.567 246.339 57.8472 246.588 58.0504C246.84 58.2501 247.15 58.3499 247.518 58.3499ZM258.968 60.1524C258.453 60.1524 257.994 60.0631 257.591 59.8844C257.189 59.7022 256.87 59.4342 256.635 59.0804C256.404 58.723 256.288 58.2781 256.288 57.7456C256.288 57.2972 256.371 56.9206 256.535 56.6158C256.7 56.311 256.924 56.0658 257.208 55.8801C257.492 55.6944 257.814 55.5543 258.175 55.4597C258.539 55.3651 258.921 55.2986 259.32 55.26C259.79 55.211 260.168 55.1654 260.455 55.1234C260.743 55.0779 260.951 55.0113 261.081 54.9237C261.21 54.8361 261.275 54.7065 261.275 54.5349V54.5033C261.275 54.1705 261.17 53.913 260.96 53.7308C260.753 53.5487 260.459 53.4576 260.077 53.4576C259.674 53.4576 259.354 53.5469 259.115 53.7256C258.877 53.9008 258.72 54.1215 258.642 54.3877L256.572 54.2196C256.677 53.7291 256.884 53.3052 257.192 52.9479C257.5 52.587 257.898 52.3103 258.385 52.1176C258.875 51.9214 259.443 51.8233 260.088 51.8233C260.536 51.8233 260.965 51.8759 261.375 51.981C261.788 52.0861 262.155 52.249 262.473 52.4697C262.796 52.6904 263.05 52.9741 263.235 53.321C263.421 53.6643 263.514 54.0759 263.514 54.5559V60H261.391V58.8807H261.328C261.198 59.1329 261.025 59.3554 260.808 59.5481C260.59 59.7373 260.329 59.8861 260.025 59.9947C259.72 60.0998 259.368 60.1524 258.968 60.1524ZM259.609 58.6074C259.939 58.6074 260.229 58.5426 260.482 58.413C260.734 58.2799 260.932 58.1012 261.076 57.877C261.219 57.6528 261.291 57.3988 261.291 57.115V56.2585C261.221 56.304 261.125 56.3461 261.002 56.3846C260.883 56.4196 260.748 56.4529 260.597 56.4844C260.447 56.5125 260.296 56.5387 260.145 56.5633C259.995 56.5843 259.858 56.6036 259.736 56.6211C259.473 56.6596 259.243 56.7209 259.047 56.805C258.851 56.8891 258.699 57.0029 258.59 57.1466C258.481 57.2867 258.427 57.4619 258.427 57.6721C258.427 57.9768 258.537 58.2098 258.758 58.371C258.982 58.5286 259.266 58.6074 259.609 58.6074ZM271.966 54.2301L269.917 54.3562C269.882 54.181 269.807 54.0234 269.691 53.8832C269.575 53.7396 269.423 53.6258 269.234 53.5417C269.048 53.4541 268.826 53.4103 268.566 53.4103C268.22 53.4103 267.927 53.4839 267.689 53.631C267.451 53.7746 267.332 53.9673 267.332 54.209C267.332 54.4017 267.409 54.5646 267.563 54.6978C267.717 54.8309 267.981 54.9377 268.356 55.0183L269.817 55.3126C270.602 55.4737 271.187 55.733 271.572 56.0903C271.958 56.4477 272.15 56.9171 272.15 57.4986C272.15 58.0276 271.994 58.4918 271.683 58.8912C271.374 59.2906 270.95 59.6024 270.411 59.8266C269.875 60.0473 269.257 60.1576 268.556 60.1576C267.487 60.1576 266.636 59.9352 266.002 59.4903C265.371 59.0418 265.002 58.4323 264.893 57.6615L267.095 57.5459C267.162 57.8717 267.323 58.1205 267.579 58.2921C267.834 58.4603 268.162 58.5444 268.561 58.5444C268.954 58.5444 269.269 58.4691 269.507 58.3184C269.749 58.1643 269.871 57.9663 269.875 57.7246C269.871 57.5214 269.786 57.355 269.617 57.2254C269.449 57.0923 269.19 56.9907 268.84 56.9206L267.442 56.6421C266.654 56.4844 266.067 56.2112 265.681 55.8223C265.3 55.4335 265.109 54.9377 265.109 54.3352C265.109 53.8167 265.249 53.37 265.529 52.9952C265.813 52.6203 266.21 52.3313 266.722 52.1281C267.237 51.9249 267.84 51.8233 268.53 51.8233C269.549 51.8233 270.351 52.0388 270.936 52.4697C271.525 52.9006 271.868 53.4874 271.966 54.2301Z" fill="#002068"/>
</g>
</svg>
