<svg width="55" height="54" viewBox="0 0 55 54" fill="none" xmlns="http://www.w3.org/2000/svg">
<path d="M26.3114 26.3161C32.1692 20.4572 32.2467 11.0355 26.4845 5.27225C20.7223 -0.491036 11.3024 -0.4135 5.44458 5.44541C-0.413238 11.3043 -0.490758 20.726 5.27146 26.4893C11.0337 32.2526 20.4536 32.175 26.3114 26.3161Z" stroke="#F2F2F4" stroke-width="2" stroke-linecap="round" stroke-linejoin="round"/>
<path d="M30.5044 30.5L26.3164 26.312" stroke="#F2F2F4" stroke-width="2" stroke-linecap="round" stroke-linejoin="round"/>
<path d="M45.2117 50.9587C46.8314 52.5783 49.4573 52.5783 51.0771 50.9587C52.6969 49.339 52.6974 46.7125 51.0778 45.0927L36.4668 30.4817C34.8469 28.8618 32.2205 28.8625 30.6007 30.4823C28.9811 32.1022 28.9809 34.728 30.6007 36.3477L45.2117 50.9587ZM32.1675 35.4908C31.217 34.5401 31.2168 32.9984 32.1675 32.0478C33.1182 31.0974 34.6592 31.0981 35.6098 32.0485L49.58 46.0187C50.5306 46.9693 50.5311 48.5102 49.5807 49.461C48.63 50.4117 47.0884 50.4117 46.1377 49.461L32.1675 35.4908Z" fill="#F2F2F4"/>
</svg>
