<svg width="55" height="54" viewBox="0 0 55 54" fill="none" xmlns="http://www.w3.org/2000/svg">
<path d="M27.1903 26.3161C33.0481 20.4572 33.1256 11.0355 27.3634 5.27225C21.6012 -0.491036 12.1813 -0.4135 6.32349 5.44541C0.465669 11.3043 0.388148 20.726 6.15036 26.4893C11.9126 32.2526 21.3325 32.175 27.1903 26.3161Z" stroke="#002068" stroke-width="2" stroke-linecap="round" stroke-linejoin="round"/>
<path d="M31.3833 30.5L27.1953 26.312" stroke="#002068" stroke-width="2" stroke-linecap="round" stroke-linejoin="round"/>
<path d="M46.0906 50.9587C47.7104 52.5783 50.3362 52.5783 51.956 50.9587C53.5758 49.339 53.5763 46.7125 51.9567 45.0927L37.3457 30.4817C35.7258 28.8618 33.0994 28.8625 31.4796 30.4823C29.86 32.1022 29.8598 34.728 31.4796 36.3477L46.0906 50.9587ZM33.0464 35.4908C32.0959 34.5401 32.0957 32.9984 33.0464 32.0478C33.9971 31.0974 35.5381 31.0981 36.4887 32.0485L50.4589 46.0187C51.4095 46.9693 51.41 48.5102 50.4596 49.461C49.5089 50.4117 47.9673 50.4117 47.0166 49.461L33.0464 35.4908Z" fill="#002068"/>
</svg>
